<svg xmlns="http://www.w3.org/2000/svg" xmlns:xlink="http://www.w3.org/1999/xlink" viewBox="0 0 148.09 155.55"><defs><style>.cls-1,.cls-13{fill:#26c281;}.cls-2{fill:url(#linear-gradient);}.cls-3{fill:url(#linear-gradient-2);}.cls-4{fill:url(#linear-gradient-3);}.cls-5{fill:url(#linear-gradient-4);}.cls-6{fill:url(#linear-gradient-5);}.cls-7{fill:url(#linear-gradient-6);}.cls-8{fill:url(#linear-gradient-7);}.cls-13,.cls-14,.cls-9{opacity:0.1;}.cls-9{fill:url(#linear-gradient-8);}.cls-10{fill:url(#linear-gradient-9);}.cls-11{fill:url(#linear-gradient-10);}.cls-12,.cls-15{opacity:0.94;}.cls-12{fill:url(#linear-gradient-11);}.cls-14{fill:url(#linear-gradient-12);}.cls-15{fill:url(#linear-gradient-13);}</style><linearGradient id="linear-gradient" x1="32.14" y1="75.01" x2="148.09" y2="75.01" gradientUnits="userSpaceOnUse"><stop offset="0" stop-color="#72d9c0"/><stop offset="0.25" stop-color="#64d5b5"/><stop offset="0.7" stop-color="#41ca97"/><stop offset="1" stop-color="#26c281"/></linearGradient><linearGradient id="linear-gradient-2" y1="51.42" x2="132.02" y2="51.42" gradientUnits="userSpaceOnUse"><stop offset="0" stop-color="#72d9c0"/><stop offset="0.51" stop-color="#72d9c0"/><stop offset="1" stop-color="#63ca98" stop-opacity="0"/></linearGradient><linearGradient id="linear-gradient-3" x1="43.34" y1="123.13" x2="132.81" y2="123.13" gradientUnits="userSpaceOnUse"><stop offset="0" stop-color="#63ca98"/><stop offset="0.28" stop-color="#72d9c0"/><stop offset="1" stop-color="#72d9c0" stop-opacity="0"/></linearGradient><linearGradient id="linear-gradient-4" x1="132.96" y1="64.59" x2="135.85" y2="64.59" xlink:href="#linear-gradient-2"/><linearGradient id="linear-gradient-5" x1="137.92" y1="63.31" x2="139.33" y2="63.31" xlink:href="#linear-gradient-2"/><linearGradient id="linear-gradient-6" x1="136.29" y1="64.01" x2="137.55" y2="64.01" xlink:href="#linear-gradient-2"/><linearGradient id="linear-gradient-7" x1="136.2" y1="64.28" x2="136.28" y2="64.28" xlink:href="#linear-gradient-2"/><linearGradient id="linear-gradient-8" x1="1.04" y1="82.79" x2="132.13" y2="82.79" gradientUnits="userSpaceOnUse"><stop offset="0"/><stop offset="0.11" stop-color="#030e09"/><stop offset="0.33" stop-color="#0a3221"/><stop offset="0.62" stop-color="#156c48"/><stop offset="0.97" stop-color="#25bc7d"/><stop offset="1" stop-color="#26c281"/></linearGradient><linearGradient id="linear-gradient-9" x1="132.96" y1="64.89" x2="132.96" y2="64.89" xlink:href="#linear-gradient-2"/><linearGradient id="linear-gradient-10" x1="137.71" y1="63.72" x2="137.9" y2="63.72" xlink:href="#linear-gradient-2"/><linearGradient id="linear-gradient-11" x1="88.8" y1="4.05" x2="212.86" y2="4.05" gradientTransform="translate(-79.95 98.23) rotate(-9.06)" gradientUnits="userSpaceOnUse"><stop offset="0" stop-color="#72d9c0"/><stop offset="0.16" stop-color="#62d4b2" stop-opacity="0.78"/><stop offset="0.38" stop-color="#4dcea1" stop-opacity="0.51"/><stop offset="0.58" stop-color="#3cc993" stop-opacity="0.29"/><stop offset="0.76" stop-color="#30c589" stop-opacity="0.13"/><stop offset="0.9" stop-color="#29c383" stop-opacity="0.03"/><stop offset="1" stop-color="#26c281" stop-opacity="0"/></linearGradient><linearGradient id="linear-gradient-12" x1="0.96" y1="90.02" x2="146.55" y2="66.81" gradientUnits="userSpaceOnUse"><stop offset="0" stop-color="#26c281"/><stop offset="0.07" stop-color="#26c281" stop-opacity="0.83"/><stop offset="0.22" stop-color="#26c281" stop-opacity="0.48"/><stop offset="0.35" stop-color="#26c281" stop-opacity="0.22"/><stop offset="0.45" stop-color="#26c281" stop-opacity="0.06"/><stop offset="0.5" stop-color="#26c281" stop-opacity="0"/></linearGradient><linearGradient id="linear-gradient-13" x1="63.48" y1="69.4" x2="133.76" y2="58.2" gradientTransform="matrix(1, 0, 0, 1, 0, 0)" xlink:href="#linear-gradient-11"/></defs><title>C</title><g id="Layer_2" data-name="Layer 2"><g id="Layer_1-2" data-name="Layer 1"><path class="cls-1" d="M77.78,155.55a77.77,77.77,0,1,1,68.29-115,16.5,16.5,0,1,1-29,15.82,44.77,44.77,0,1,0,0,42.83,16.5,16.5,0,1,1,29,15.82A77.79,77.79,0,0,1,77.78,155.55Z"/><path class="cls-2" d="M95.91,12.89c-34.77-.46-63.32,27-63.77,61.29s27.36,62.49,62.13,63A63.09,63.09,0,0,0,148,108.68a16.5,16.5,0,0,0-30.91-9.49,44.77,44.77,0,1,1,0-42.83,16.5,16.5,0,0,0,29-15.82,78.06,78.06,0,0,0-5-7.91A63.16,63.16,0,0,0,95.91,12.89Z"/><path class="cls-3" d="M1,81.67C1,42,32.75,9.77,71.86,9.77c26.83,0,48.67,13.16,60.69,35.5L133,64.89a16.49,16.49,0,0,0,13.11-24.35A77.77,77.77,0,0,0,4.17,102.83,72.89,72.89,0,0,1,1,81.67Z"/><path class="cls-4" d="M139.5,92.62a16.43,16.43,0,0,0-6-1.9l.54,25.36a70.65,70.65,0,0,1-62.19,37.49,69.63,69.63,0,0,1-28.52-6.09A77.73,77.73,0,0,0,146.07,115,16.5,16.5,0,0,0,139.5,92.62Z"/><path class="cls-5" d="M133,64.89a16.35,16.35,0,0,0,3.24-.6A16.57,16.57,0,0,1,133,64.89Z"/><path class="cls-6" d="M137.92,63.68a16.68,16.68,0,0,0,1.57-.75A16.42,16.42,0,0,1,137.92,63.68Z"/><path class="cls-7" d="M136.29,64.26c.48-.14.95-.31,1.42-.5C137.24,64,136.77,64.12,136.29,64.26Z"/><path class="cls-8" d="M136.2,64.29l.09,0Z"/><path class="cls-9" d="M139.5,92.62a16.5,16.5,0,0,0-22.39,6.57,44.77,44.77,0,1,1,0-42.83A16.49,16.49,0,0,0,133,64.89l-.42-19.61C121.48,24.71,102.08,11.92,78.13,10a61.27,61.27,0,1,0,61,90.17l1.46,12a70.65,70.65,0,0,1-62.19,37.49c-39.11,0-70.81-32.19-70.81-71.9A72.12,72.12,0,0,1,39.12,17.92,72,72,0,0,0,1,81.67a72.89,72.89,0,0,0,3.12,21.16A77.77,77.77,0,0,0,146.07,115,16.5,16.5,0,0,0,139.5,92.62Z"/><polygon class="cls-10" points="132.96 64.89 132.96 64.89 132.96 64.89 132.96 64.89"/><path class="cls-11" d="M137.71,63.76l.22-.08Z"/><path class="cls-12" d="M141.81,89.68a61.28,61.28,0,1,1-9.23-57.92l-.07-.17C117.12,11.43,93.48,1.87,67,6.09,28.36,12.25,2.12,49,8.37,88.24s42.63,66,81.25,59.85a70.65,70.65,0,0,0,55.51-46.81Z"/><path class="cls-13" d="M139.09,41.55l0-.18a66.75,66.75,0,0,0-22.68-24.82,63,63,0,0,0-7.11-2.07A61.51,61.51,0,0,1,139.09,41.55Z"/><path class="cls-13" d="M130.54,126.36a72.1,72.1,0,0,0,10-14.18l-1.46-12A61.29,61.29,0,0,1,60.61,127a63.61,63.61,0,0,0,69.93-.6Z"/><path class="cls-14" d="M130.54,126.36a70.13,70.13,0,0,1-52.18,23.31c-39.11,0-70.81-32.19-70.81-71.9s31.7-71.9,70.81-71.9c14.34,0,27.26,3.76,38,10.68A63.09,63.09,0,0,1,141.1,32.63a77.76,77.76,0,1,0,5,82.38,16.44,16.44,0,0,0,1.94-6.33A62.84,62.84,0,0,1,130.54,126.36Z"/><path class="cls-15" d="M24,70.88A61.28,61.28,0,0,0,60.61,127,61.88,61.88,0,0,1,32.14,74.18c.45-34.31,29-61.75,63.77-61.29a64,64,0,0,1,13.35,1.59A61.29,61.29,0,0,0,24,70.88Z"/></g></g></svg>